<svg xmlns="http://www.w3.org/2000/svg" width="30.005" height="24.65" viewBox="0 2.674 30.005 24.65"><path d="M29.766 17.667c.159-.868.24-1.758.24-2.668 0-.91-.081-1.8-.24-2.668l-5.147.702-7.259.99 5.833-4.433 4.137-3.142a14.927 14.927 0 0 0-3.775-3.77L20.414 6.81l-5.41 7.117L9.597 6.81 6.454 2.674a14.996 14.996 0 0 0-3.775 3.77L6.816 9.59l5.833 4.434-7.26-.991-5.15-.702A14.84 14.84 0 0 0 0 15c0 .91.08 1.8.24 2.668l5.15-.702 7.247-.987-5.825 4.43-4.137 3.142a15.087 15.087 0 0 0 3.779 3.774l3.142-4.136 5.409-7.113 5.404 7.113 3.143 4.136a15.017 15.017 0 0 0 3.778-3.774l-4.137-3.142-5.833-4.434 7.26.991 5.146.702Z" fill="#fff" fill-rule="evenodd" data-name="Path 23"/></svg>